<?xml version="1.0" standalone="no"?>
<svg viewBox="0 0 200 200" xmlns="http://www.w3.org/2000/svg">
  <path fill="#FF0066" d="M27.2,-48.7C39.1,-40.3,55.1,-40.7,56.1,-34C57,-27.4,42.8,-13.7,42.4,-0.2C41.9,13.2,55.3,26.4,52.9,30.5C50.5,34.5,32.2,29.3,20.8,30.9C9.3,32.4,4.7,40.6,-3.9,47.4C-12.5,54.1,-24.9,59.4,-30.9,54.8C-36.9,50.1,-36.4,35.4,-36.7,24.6C-37,13.8,-38.1,6.9,-44.4,-3.6C-50.6,-14.1,-61.9,-28.2,-60.1,-36.4C-58.3,-44.6,-43.3,-46.9,-31.1,-55.1C-18.9,-63.4,-9.5,-77.6,-0.9,-76C7.7,-74.4,15.3,-57.1,27.2,-48.7Z" transform="translate(100 100)" />
</svg>
